<svg viewBox="0 0 128 128"><g clip-path="url(#a)"><path fill-rule="evenodd" d="M102.5 67H128v-6h-23.6Q103 38 89 38q-8.7 0-12.5 8.6Q72.7 38 64 38t-12.5 8.6Q47.7 38 39 38q-7.8 0-11.8 7.3-3 5.6-3.6 15.7H0v6h25.5q3.9 0 4-3.9.4-10 3-15Q34.8 44 39 44q8.9 0 9.5 18.7 0 3 3 3t3-3Q55.1 44 64 44t9.5 18.7q0 3 3 3t3-3Q80.1 44 89 44t9.5 19.1q.1 3.9 4 3.9"/><rect width="2.5" height="14" x="25" y="34.6" rx="1.3" transform="rotate(90 25 34.562)"/><rect width="2.5" height="14.5" x="20.6" y="29" rx="1.3" transform="rotate(30 20.634 29)"/><rect width="2.5" height="14.5" x="13.6" y="30" rx="1.3" transform="rotate(-30 13.634 30)"/></g></svg>